<mxfile host="Electron" modified="2024-02-14T07:18:43.295Z" agent="Mozilla/5.0 (Windows NT 10.0; Win64; x64) AppleWebKit/537.36 (KHTML, like Gecko) draw.io/22.1.2 Chrome/114.0.5735.289 Electron/25.9.4 Safari/537.36" etag="niHzygKV-DTg2Q3j1Ylc" version="22.1.2" type="device">
  <diagram name="Page-1" id="IHGdRuvnINb8nVNlN0z_">
    <mxGraphModel dx="1728" dy="997" grid="1" gridSize="10" guides="1" tooltips="1" connect="1" arrows="1" fold="1" page="1" pageScale="1" pageWidth="850" pageHeight="1100" math="0" shadow="0">
      <root>
        <mxCell id="0" />
        <mxCell id="1" parent="0" />
        <mxCell id="82cXYBZCfJDiy83SROkB-24" style="edgeStyle=orthogonalEdgeStyle;rounded=0;orthogonalLoop=1;jettySize=auto;html=1;" parent="1" source="chvKxMxkXQJxIxyfZGGI-9" target="chvKxMxkXQJxIxyfZGGI-15" edge="1">
          <mxGeometry relative="1" as="geometry">
            <Array as="points">
              <mxPoint x="755" y="510" />
            </Array>
          </mxGeometry>
        </mxCell>
        <mxCell id="82cXYBZCfJDiy83SROkB-27" value="&lt;font style=&quot;font-size: 18px;&quot;&gt;Updates&lt;/font&gt;" style="edgeLabel;html=1;align=center;verticalAlign=middle;resizable=0;points=[];" parent="82cXYBZCfJDiy83SROkB-24" vertex="1" connectable="0">
          <mxGeometry x="0.4747" y="1" relative="1" as="geometry">
            <mxPoint x="-39" y="1" as="offset" />
          </mxGeometry>
        </mxCell>
        <mxCell id="chvKxMxkXQJxIxyfZGGI-9" value="&lt;font style=&quot;font-size: 18px;&quot;&gt;Controller&lt;/font&gt;" style="rounded=0;whiteSpace=wrap;html=1;verticalAlign=top;" parent="1" vertex="1">
          <mxGeometry x="540" y="120" width="430" height="200" as="geometry" />
        </mxCell>
        <mxCell id="chvKxMxkXQJxIxyfZGGI-2" value="&lt;font style=&quot;font-size: 18px;&quot;&gt;Model&lt;/font&gt;" style="rounded=0;whiteSpace=wrap;html=1;verticalAlign=top;" parent="1" vertex="1">
          <mxGeometry x="100" y="340" width="450" height="320" as="geometry" />
        </mxCell>
        <mxCell id="82cXYBZCfJDiy83SROkB-17" style="edgeStyle=orthogonalEdgeStyle;rounded=0;orthogonalLoop=1;jettySize=auto;html=1;exitX=0.5;exitY=1;exitDx=0;exitDy=0;" parent="1" source="chvKxMxkXQJxIxyfZGGI-3" target="chvKxMxkXQJxIxyfZGGI-14" edge="1">
          <mxGeometry relative="1" as="geometry" />
        </mxCell>
        <mxCell id="82cXYBZCfJDiy83SROkB-22" value="&lt;font style=&quot;font-size: 18px;&quot;&gt;Pulls Data&lt;/font&gt;" style="edgeLabel;html=1;align=center;verticalAlign=middle;resizable=0;points=[];" parent="82cXYBZCfJDiy83SROkB-17" vertex="1" connectable="0">
          <mxGeometry x="0.6259" y="-4" relative="1" as="geometry">
            <mxPoint x="-4" as="offset" />
          </mxGeometry>
        </mxCell>
        <mxCell id="chvKxMxkXQJxIxyfZGGI-3" value="&lt;font style=&quot;font-size: 18px;&quot;&gt;Drone&lt;/font&gt;" style="rounded=1;whiteSpace=wrap;html=1;" parent="1" vertex="1">
          <mxGeometry x="380" y="530" width="160" height="50" as="geometry" />
        </mxCell>
        <mxCell id="chvKxMxkXQJxIxyfZGGI-4" value="&lt;font style=&quot;font-size: 18px;&quot;&gt;AtmosphereConditions&lt;/font&gt;" style="rounded=1;whiteSpace=wrap;html=1;" parent="1" vertex="1">
          <mxGeometry x="120" y="530" width="190" height="50" as="geometry" />
        </mxCell>
        <mxCell id="chvKxMxkXQJxIxyfZGGI-5" value="&lt;font style=&quot;font-size: 18px;&quot;&gt;DragLiftCoefficientInterface&lt;/font&gt;" style="rounded=1;whiteSpace=wrap;html=1;" parent="1" vertex="1">
          <mxGeometry x="110" y="470" width="230" height="50" as="geometry" />
        </mxCell>
        <mxCell id="82cXYBZCfJDiy83SROkB-9" style="edgeStyle=orthogonalEdgeStyle;rounded=0;orthogonalLoop=1;jettySize=auto;html=1;entryX=0.5;entryY=0;entryDx=0;entryDy=0;endArrow=classic;endFill=1;startArrow=classic;startFill=1;" parent="1" source="chvKxMxkXQJxIxyfZGGI-6" target="chvKxMxkXQJxIxyfZGGI-3" edge="1">
          <mxGeometry relative="1" as="geometry" />
        </mxCell>
        <mxCell id="chvKxMxkXQJxIxyfZGGI-6" value="&lt;font style=&quot;font-size: 18px;&quot;&gt;Mission&lt;/font&gt;" style="rounded=1;whiteSpace=wrap;html=1;" parent="1" vertex="1">
          <mxGeometry x="365" y="370" width="160" height="50" as="geometry" />
        </mxCell>
        <mxCell id="chvKxMxkXQJxIxyfZGGI-8" value="&lt;font style=&quot;font-size: 18px;&quot;&gt;MotorTableInterface&lt;/font&gt;" style="rounded=1;whiteSpace=wrap;html=1;" parent="1" vertex="1">
          <mxGeometry x="135" y="590" width="160" height="50" as="geometry" />
        </mxCell>
        <mxCell id="chvKxMxkXQJxIxyfZGGI-11" value="&lt;font style=&quot;font-size: 18px;&quot;&gt;IntroController&lt;/font&gt;" style="rounded=1;whiteSpace=wrap;html=1;" parent="1" vertex="1">
          <mxGeometry x="790" y="150" width="160" height="45" as="geometry" />
        </mxCell>
        <mxCell id="82cXYBZCfJDiy83SROkB-18" style="edgeStyle=orthogonalEdgeStyle;rounded=0;orthogonalLoop=1;jettySize=auto;html=1;exitX=0;exitY=0.5;exitDx=0;exitDy=0;entryX=0.5;entryY=0;entryDx=0;entryDy=0;" parent="1" source="chvKxMxkXQJxIxyfZGGI-13" target="chvKxMxkXQJxIxyfZGGI-6" edge="1">
          <mxGeometry relative="1" as="geometry" />
        </mxCell>
        <mxCell id="82cXYBZCfJDiy83SROkB-23" value="&lt;font style=&quot;font-size: 18px;&quot;&gt;Modifies&lt;/font&gt;" style="edgeLabel;html=1;align=center;verticalAlign=middle;resizable=0;points=[];" parent="82cXYBZCfJDiy83SROkB-18" vertex="1" connectable="0">
          <mxGeometry x="0.1028" y="4" relative="1" as="geometry">
            <mxPoint x="-4" as="offset" />
          </mxGeometry>
        </mxCell>
        <mxCell id="chvKxMxkXQJxIxyfZGGI-13" value="&lt;font style=&quot;font-size: 18px;&quot;&gt;MissionController&lt;/font&gt;" style="rounded=1;whiteSpace=wrap;html=1;" parent="1" vertex="1">
          <mxGeometry x="585" y="150" width="160" height="50" as="geometry" />
        </mxCell>
        <mxCell id="chvKxMxkXQJxIxyfZGGI-14" value="&lt;font style=&quot;font-size: 18px;&quot;&gt;ResultsController&lt;/font&gt;" style="rounded=1;whiteSpace=wrap;html=1;" parent="1" vertex="1">
          <mxGeometry x="790" y="230" width="160" height="50" as="geometry" />
        </mxCell>
        <mxCell id="82cXYBZCfJDiy83SROkB-25" style="edgeStyle=orthogonalEdgeStyle;rounded=0;orthogonalLoop=1;jettySize=auto;html=1;exitX=0.25;exitY=0;exitDx=0;exitDy=0;entryX=1;entryY=0.75;entryDx=0;entryDy=0;" parent="1" source="chvKxMxkXQJxIxyfZGGI-15" target="chvKxMxkXQJxIxyfZGGI-9" edge="1">
          <mxGeometry relative="1" as="geometry" />
        </mxCell>
        <mxCell id="82cXYBZCfJDiy83SROkB-26" value="&lt;font style=&quot;font-size: 18px;&quot;&gt;Pulls Data&lt;/font&gt;" style="edgeLabel;html=1;align=center;verticalAlign=middle;resizable=0;points=[];" parent="82cXYBZCfJDiy83SROkB-25" vertex="1" connectable="0">
          <mxGeometry x="-0.4218" y="3" relative="1" as="geometry">
            <mxPoint x="6" as="offset" />
          </mxGeometry>
        </mxCell>
        <mxCell id="chvKxMxkXQJxIxyfZGGI-15" value="&lt;font style=&quot;font-size: 18px;&quot;&gt;View&lt;/font&gt;" style="rounded=0;whiteSpace=wrap;html=1;verticalAlign=top;" parent="1" vertex="1">
          <mxGeometry x="950" y="360" width="370" height="300" as="geometry" />
        </mxCell>
        <mxCell id="chvKxMxkXQJxIxyfZGGI-16" value="&lt;font style=&quot;font-size: 18px;&quot;&gt;DroneParametersPage&lt;/font&gt;" style="rounded=1;whiteSpace=wrap;html=1;" parent="1" vertex="1">
          <mxGeometry x="1150" y="490" width="150" height="55" as="geometry" />
        </mxCell>
        <mxCell id="chvKxMxkXQJxIxyfZGGI-17" value="&lt;font style=&quot;font-size: 18px;&quot;&gt;IntroductionPage&lt;/font&gt;" style="rounded=1;whiteSpace=wrap;html=1;" parent="1" vertex="1">
          <mxGeometry x="970" y="410" width="150" height="55" as="geometry" />
        </mxCell>
        <mxCell id="chvKxMxkXQJxIxyfZGGI-18" value="&lt;font style=&quot;font-size: 18px;&quot;&gt;MissionParametersPage&lt;/font&gt;" style="rounded=1;whiteSpace=wrap;html=1;" parent="1" vertex="1">
          <mxGeometry x="970" y="570" width="150" height="55" as="geometry" />
        </mxCell>
        <mxCell id="chvKxMxkXQJxIxyfZGGI-19" value="&lt;font style=&quot;font-size: 18px;&quot;&gt;MissionProfilePage&lt;/font&gt;" style="rounded=1;whiteSpace=wrap;html=1;" parent="1" vertex="1">
          <mxGeometry x="1150" y="410" width="150" height="55" as="geometry" />
        </mxCell>
        <mxCell id="chvKxMxkXQJxIxyfZGGI-20" value="&lt;font style=&quot;font-size: 18px;&quot;&gt;MissionTypePage&lt;/font&gt;" style="rounded=1;whiteSpace=wrap;html=1;" parent="1" vertex="1">
          <mxGeometry x="970" y="490" width="150" height="55" as="geometry" />
        </mxCell>
        <mxCell id="chvKxMxkXQJxIxyfZGGI-21" value="&lt;font style=&quot;font-size: 18px;&quot;&gt;ResultsPage&lt;/font&gt;" style="rounded=1;whiteSpace=wrap;html=1;" parent="1" vertex="1">
          <mxGeometry x="1150" y="570" width="150" height="55" as="geometry" />
        </mxCell>
        <mxCell id="82cXYBZCfJDiy83SROkB-6" value="" style="endArrow=diamondThin;endFill=0;endSize=24;html=1;rounded=0;exitX=1;exitY=0.5;exitDx=0;exitDy=0;entryX=0;entryY=0.5;entryDx=0;entryDy=0;edgeStyle=orthogonalEdgeStyle;" parent="1" source="chvKxMxkXQJxIxyfZGGI-5" target="chvKxMxkXQJxIxyfZGGI-3" edge="1">
          <mxGeometry width="160" relative="1" as="geometry">
            <mxPoint x="310" y="460" as="sourcePoint" />
            <mxPoint x="470" y="460" as="targetPoint" />
            <Array as="points">
              <mxPoint x="350" y="495" />
              <mxPoint x="350" y="555" />
            </Array>
          </mxGeometry>
        </mxCell>
        <mxCell id="82cXYBZCfJDiy83SROkB-7" value="" style="endArrow=diamondThin;endFill=0;endSize=24;html=1;rounded=0;exitX=1;exitY=0.5;exitDx=0;exitDy=0;entryX=0;entryY=0.5;entryDx=0;entryDy=0;edgeStyle=orthogonalEdgeStyle;" parent="1" source="chvKxMxkXQJxIxyfZGGI-4" target="chvKxMxkXQJxIxyfZGGI-3" edge="1">
          <mxGeometry width="160" relative="1" as="geometry">
            <mxPoint x="280" y="505" as="sourcePoint" />
            <mxPoint x="375" y="565" as="targetPoint" />
          </mxGeometry>
        </mxCell>
        <mxCell id="82cXYBZCfJDiy83SROkB-8" value="" style="endArrow=diamondThin;endFill=0;endSize=24;html=1;rounded=0;exitX=1;exitY=0.5;exitDx=0;exitDy=0;entryX=0;entryY=0.5;entryDx=0;entryDy=0;edgeStyle=orthogonalEdgeStyle;" parent="1" source="chvKxMxkXQJxIxyfZGGI-8" target="chvKxMxkXQJxIxyfZGGI-3" edge="1">
          <mxGeometry width="160" relative="1" as="geometry">
            <mxPoint x="280" y="565" as="sourcePoint" />
            <mxPoint x="375" y="565" as="targetPoint" />
            <Array as="points">
              <mxPoint x="350" y="615" />
              <mxPoint x="350" y="555" />
            </Array>
          </mxGeometry>
        </mxCell>
        <mxCell id="82cXYBZCfJDiy83SROkB-16" style="edgeStyle=orthogonalEdgeStyle;rounded=0;orthogonalLoop=1;jettySize=auto;html=1;exitX=0.5;exitY=1;exitDx=0;exitDy=0;entryX=1;entryY=0.5;entryDx=0;entryDy=0;" parent="1" source="chvKxMxkXQJxIxyfZGGI-10" target="chvKxMxkXQJxIxyfZGGI-3" edge="1">
          <mxGeometry relative="1" as="geometry" />
        </mxCell>
        <mxCell id="82cXYBZCfJDiy83SROkB-21" value="&lt;font style=&quot;font-size: 18px;&quot;&gt;Modifies&lt;/font&gt;" style="edgeLabel;html=1;align=center;verticalAlign=middle;resizable=0;points=[];" parent="82cXYBZCfJDiy83SROkB-16" vertex="1" connectable="0">
          <mxGeometry x="-0.3978" y="-1" relative="1" as="geometry">
            <mxPoint as="offset" />
          </mxGeometry>
        </mxCell>
        <mxCell id="chvKxMxkXQJxIxyfZGGI-10" value="&lt;font style=&quot;font-size: 18px;&quot;&gt;DroneParameterController&lt;/font&gt;" style="rounded=1;whiteSpace=wrap;html=1;" parent="1" vertex="1">
          <mxGeometry x="550" y="230" width="230" height="50" as="geometry" />
        </mxCell>
      </root>
    </mxGraphModel>
  </diagram>
</mxfile>
